<svg width="32" height="22" viewBox="0 0 32 22" fill="none" xmlns="http://www.w3.org/2000/svg">
<path d="M24.6882 1.09091L30.663 19.6941C30.9887 20.7084 30.2321 21.746 29.1668 21.746H24.7734C24.0887 21.746 23.4828 21.3027 23.2756 20.6502L17.3688 2.04699C17.047 1.03369 17.8033 0 18.8665 0H23.1921C23.8748 0 24.4794 0.44086 24.6882 1.09091Z" fill="#4266E8"/>
<g filter="url(#filter0_i_15442_8289)">
<path opacity="0.3" d="M18.9653 14.85L14.7523 1.35504C14.5006 0.548935 13.7542 0 12.9097 0C11.8818 0 11.0342 0.805499 10.9819 1.83205L10.4679 11.919C10.4497 12.2772 10.4929 12.636 10.5957 12.9796L12.8828 20.625C13.0818 21.2903 13.6939 21.746 14.3883 21.746H16.5143C17.1982 21.746 17.8036 21.3036 18.0114 20.6519L18.9568 17.687C19.2509 16.7646 19.2538 15.7741 18.9653 14.85Z" fill="white"/>
<path d="M18.9653 14.85L14.7523 1.35504C14.5006 0.548935 13.7542 0 12.9097 0C11.8818 0 11.0342 0.805499 10.9819 1.83205L10.4679 11.919C10.4497 12.2772 10.4929 12.636 10.5957 12.9796L12.8828 20.625C13.0818 21.2903 13.6939 21.746 14.3883 21.746H16.5143C17.1982 21.746 17.8036 21.3036 18.0114 20.6519L18.9568 17.687C19.2509 16.7646 19.2538 15.7741 18.9653 14.85Z" fill="#3D315F" fill-opacity="0.2"/>
<path d="M18.9653 14.85L14.7523 1.35504C14.5006 0.548935 13.7542 0 12.9097 0C11.8818 0 11.0342 0.805499 10.9819 1.83205L10.4679 11.919C10.4497 12.2772 10.4929 12.636 10.5957 12.9796L12.8828 20.625C13.0818 21.2903 13.6939 21.746 14.3883 21.746H16.5143C17.1982 21.746 17.8036 21.3036 18.0114 20.6519L18.9568 17.687C19.2509 16.7646 19.2538 15.7741 18.9653 14.85Z" fill="url(#paint0_linear_15442_8289)"/>
</g>
<path d="M8.66079 0H12.988C14.0476 0 14.8035 1.02728 14.4882 2.03891L8.64213 20.8008C8.43753 21.4575 7.82966 21.9048 7.14185 21.9048H2.81471C1.7551 21.9048 0.999204 20.8775 1.31442 19.8658L7.16051 1.10395C7.36515 0.447291 7.97301 0 8.66079 0Z" fill="#4266E8"/>
<defs>
<filter id="filter0_i_15442_8289" x="6.46387" y="0" width="12.7158" height="24.746" filterUnits="userSpaceOnUse" color-interpolation-filters="sRGB">
<feFlood flood-opacity="0" result="BackgroundImageFix"/>
<feBlend mode="normal" in="SourceGraphic" in2="BackgroundImageFix" result="shape"/>
<feColorMatrix in="SourceAlpha" type="matrix" values="0 0 0 0 0 0 0 0 0 0 0 0 0 0 0 0 0 0 127 0" result="hardAlpha"/>
<feOffset dx="-4" dy="3"/>
<feGaussianBlur stdDeviation="2"/>
<feComposite in2="hardAlpha" operator="arithmetic" k2="-1" k3="1"/>
<feColorMatrix type="matrix" values="0 0 0 0 0.904167 0 0 0 0 0.892865 0 0 0 0 0.892865 0 0 0 0.4 0"/>
<feBlend mode="normal" in2="shape" result="effect1_innerShadow_15442_8289"/>
</filter>
<linearGradient id="paint0_linear_15442_8289" x1="12.0713" y1="9.625" x2="16.5892" y2="10.8036" gradientUnits="userSpaceOnUse">
<stop stop-opacity="0.25"/>
<stop offset="0.911458" stop-color="white" stop-opacity="0"/>
</linearGradient>
</defs>
</svg>
